<?xml version="1.0" standalone="no"?><!DOCTYPE svg PUBLIC "-//W3C//DTD SVG 1.1//EN" "http://www.w3.org/Graphics/SVG/1.1/DTD/svg11.dtd"><svg t="1745896892185" class="icon" viewBox="0 0 1024 1024" version="1.1" xmlns="http://www.w3.org/2000/svg" p-id="4033" xmlns:xlink="http://www.w3.org/1999/xlink" width="200" height="200"><path d="M708.6 64H671v253.1h37.6l3.4-20.5c6.8 16 18.2 23.9 34.2 23.9s29.1-8.5 39.3-25.6c10.3-17.1 15.4-39.3 15.4-66.7s-4.6-49-13.7-65-21.7-23.9-37.6-23.9-28.5 10.3-37.6 30.8l-3.4-106z m0 160.7c0-11.4 2.8-21.7 8.5-30.8s12.5-13.7 20.5-13.7 13.7 4 17.1 12 5.1 19.9 5.1 35.9-2.3 28.5-6.8 37.6-10.8 13.7-18.8 13.7-14.2-4-18.8-12-6.8-16.5-6.8-25.6v-17.1zM363.2 358.1l-41-41-61.6 61.6v-99.2c0-6.8 2.8-13.7 8.5-20.5s13.1-10.3 22.2-10.3h150.5v-58.1H291.3c-25.1 0-46.2 9.1-63.3 27.4-17.1 18.2-25.6 38.8-25.6 61.6v99.2l-65-65-41 41 133.4 136.8 133.4-133.4zM565 289.7c-9.1 20.5-22.8 30.8-41 30.8s-24.5-5.1-32.5-15.4-12-23.4-12-39.3c0-36.5 16-58.1 47.9-65l37.6-3.4c2.3-20.5-5.1-30.8-22.2-30.8s-33.6 5.7-49.6 17.1v-41c6.8-4.6 15.4-8.5 25.6-12 10.3-3.4 19.9-5.1 29.1-5.1 41 0 61.6 26.2 61.6 78.7v109.4H565v-23.9z m0-61.5l-23.9 3.4c-13.7 2.3-20.5 11.4-20.5 27.4s1.7 9.1 5.1 13.7 8.5 6.8 15.4 6.8 13.1-4 18.8-12c5.7-8 8.5-16.5 8.5-25.6v-13.7H565z m-150.5 489c0-52.4-19.4-78.7-58.1-78.7-9.1 2.3-18.8 4.6-29.1 6.8-10.3 2.3-18.8 5.7-25.6 10.3v41c16-11.4 31.9-17.1 47.9-17.1s23.9 10.3 23.9 30.8l-37.6 3.4c-31.9 6.8-47.9 28.5-47.9 65s4 29.1 12 39.3c8 10.3 18.8 15.4 32.5 15.4s31.9-10.3 41-30.8v23.9h41V717.1z m-41 37.6c0 11.4-2.3 20.5-6.8 27.4s-10.3 10.3-17.1 10.3-12-2.3-15.4-6.8c-3.4-4.6-5.1-9.1-5.1-13.7 0-16 6.8-25.1 20.5-27.4l23.9-3.4v13.7z m188.1 78.7c-25.1 0-45-8.5-59.8-25.6-14.8-17.1-22.2-40.5-22.2-70.1s8-53.6 23.9-71.8c16-18.2 37.6-27.4 65-27.4 18.2 2.3 30.8 5.7 37.6 10.3v47.9c-9.1-9.1-19.9-13.7-32.5-13.7s-23.4 5.1-32.5 15.4-13.7 23.4-13.7 39.3 4 28.5 12 37.6c8 9.1 18.8 13.7 32.5 13.7s26.2-4.6 37.6-13.7v47.9c-11.4 6.8-27.4 10.3-47.9 10.3zM96.5 895l61.6 65h578l65-65V577l-65-65H158l-61.6 65v318zM736 577v318H158V577h578z m130-130v386.4l61.6-65V446.9l-61.6-65H414.6l-61.6 65h513z" p-id="4034"></path></svg>