<?xml version="1.0" standalone="no"?><!DOCTYPE svg PUBLIC "-//W3C//DTD SVG 1.1//EN" "http://www.w3.org/Graphics/SVG/1.1/DTD/svg11.dtd"><svg t="1745896877376" class="icon" viewBox="0 0 1024 1024" version="1.1" xmlns="http://www.w3.org/2000/svg" p-id="2650" xmlns:xlink="http://www.w3.org/1999/xlink" width="200" height="200"><path d="M284.6 194l68.4 68.4V159.8c0-27.4 9.1-50.2 27.4-68.4 18.2-18.2 41-27.4 68.4-27.4h95.8v61.6h-99.2c-6.8 0-13.7 3.4-20.5 10.3-6.8 6.8-10.3 14.8-10.3 23.9v102.6l65-65 44.5 44.5-140.2 143.6-147.1-147.1 47.9-44.5z m379.6 184.6h-54.7V64h54.7l3.4 133.4c13.7-25.1 33.1-37.6 58.1-37.6s43.9 9.7 56.4 29.1 18.8 46.2 18.8 80.4-7.4 61.6-22.2 82.1c-14.8 20.5-34.2 31.3-58.1 32.5s-41.6-8.5-53-29.1h-3.4v23.9z m0-92.3c0 11.4 3.4 22.2 10.3 32.5 6.8 10.3 16.5 15.4 29.1 15.4s22.2-5.7 29.1-17.1c6.8-11.4 10.3-26.8 10.3-46.2s-3.4-34.2-10.3-44.5c-6.8-10.3-16.5-15.4-29.1-15.4s-22.2 4.6-29.1 13.7c-6.8 9.1-10.3 21.7-10.3 37.6v23.9z m-54.7 471.9c-18.2 11.4-37 17.1-56.4 17.1s-34.8-6.3-46.2-18.8c-11.4-12.5-17.1-29.6-17.1-51.3s6.3-38.8 18.8-51.3 28.5-18.8 47.9-18.8 37 5.7 53 17.1v-65c-13.7-6.8-34.2-10.3-61.6-10.3-38.8 0-70.7 12-95.8 35.9-25.1 23.9-36.5 56.4-34.2 97.5 0 36.5 10.8 66.1 32.5 88.9 21.7 22.8 50.7 34.2 87.2 34.2s55.9-5.7 71.8-17.1v-58.1zM736 447l65 65v383l-65 65H288l-65-65V512l65-65h448zM288 895h448V512H288v383z" p-id="2651"></path></svg>